<svg width="305" height="114" viewBox="0 0 305 114" fill="none" xmlns="http://www.w3.org/2000/svg">
<g clip-path="url(#clip0_4313_2038)">
<path d="M9.22243 100.629C10.2903 101.004 11.4369 101.098 12.5517 100.902C13.6665 100.705 14.712 100.225 15.5874 99.507C17.8167 97.635 18.5158 94.5519 19.0843 91.6964L20.7665 83.25L17.2448 85.6759C14.712 87.4205 12.1223 89.2211 10.3688 91.748C8.61527 94.2749 7.85026 97.7246 9.25874 100.459" fill="#E6E6E6"/>
<path d="M9.76653 111.443C9.32328 108.212 8.86721 104.94 9.17888 101.674C9.45508 98.7742 10.3395 95.9422 12.14 93.6192C13.0957 92.3887 14.2587 91.3344 15.5766 90.5037C15.9201 90.2868 16.2364 90.8314 15.8943 91.0475C13.614 92.4892 11.8502 94.6181 10.8573 97.1272C9.76066 99.9174 9.58458 102.959 9.77347 105.923C9.88764 107.716 10.1303 109.496 10.3739 111.275C10.3932 111.355 10.3811 111.44 10.3403 111.512C10.2995 111.584 10.2329 111.638 10.154 111.662C10.0735 111.684 9.98766 111.673 9.91517 111.632C9.84268 111.591 9.78935 111.523 9.76675 111.442L9.76653 111.443Z" fill="#F2F2F2"/>
<path d="M12.957 106.258C13.415 106.955 14.0445 107.522 14.785 107.904C15.5255 108.287 16.352 108.472 17.1848 108.442C19.3255 108.34 21.1095 106.846 22.7153 105.427L27.4658 101.231L24.3219 101.081C22.0609 100.972 19.7415 100.871 17.588 101.569C15.4344 102.268 13.4484 103.946 13.0546 106.176" fill="#E6E6E6"/>
<path d="M8.51407 113.299C10.6481 109.522 13.1232 105.324 17.5461 103.982C18.7758 103.61 20.0652 103.477 21.3449 103.59C21.7483 103.624 21.6475 104.246 21.245 104.212C19.0999 104.033 16.9589 104.6 15.1825 105.816C13.5125 107.028 12.0968 108.557 11.0156 110.315C10.3255 111.366 9.70742 112.462 9.08933 113.556C8.89184 113.906 8.31426 113.653 8.51407 113.299Z" fill="#F2F2F2"/>
<path d="M204.426 95.6908C205.897 96.2079 207.475 96.3374 209.011 96.0669C210.546 95.7964 211.985 95.1349 213.191 94.1462C216.261 91.5683 217.223 87.3227 218.006 83.3905L220.323 71.7593L215.473 75.0999C211.985 77.5023 208.419 79.9819 206.005 83.4616C203.59 86.9413 202.536 91.6918 204.476 95.4571" fill="#E6E6E6"/>
<path d="M205.175 110.582C204.565 106.134 203.937 101.627 204.366 97.1306C204.746 93.1371 205.964 89.2373 208.444 86.0383C209.76 84.3439 211.361 82.8921 213.176 81.7482C213.649 81.4495 214.085 82.1995 213.614 82.4971C210.473 84.4823 208.045 87.4139 206.677 90.8692C205.167 94.7114 204.925 98.9001 205.185 102.982C205.342 105.45 205.676 107.902 206.012 110.351C206.038 110.462 206.022 110.579 205.965 110.678C205.909 110.777 205.817 110.851 205.709 110.885C205.598 110.915 205.48 110.9 205.38 110.843C205.28 110.786 205.207 110.692 205.176 110.582L205.175 110.582Z" fill="#F2F2F2"/>
<path d="M209.568 103.444C210.199 104.403 211.066 105.183 212.086 105.71C213.105 106.237 214.243 106.492 215.39 106.451C218.338 106.311 220.795 104.253 223.006 102.299L229.548 96.5209L225.218 96.3136C222.105 96.1644 218.911 96.0245 215.945 96.9861C212.98 97.9478 210.245 100.259 209.703 103.329" fill="#E6E6E6"/>
<path d="M203.45 113.14C206.388 107.938 209.797 102.157 215.887 100.309C217.581 99.7971 219.356 99.6137 221.118 99.7687C221.674 99.8167 221.535 100.673 220.981 100.625C218.027 100.38 215.079 101.16 212.632 102.835C210.278 104.438 208.446 106.667 206.894 109.03C205.944 110.477 205.093 111.986 204.242 113.493C203.97 113.975 203.174 113.627 203.45 113.14Z" fill="#F2F2F2"/>
<path d="M176.884 17.4213C176.574 17.2863 176.325 17.0419 176.183 16.7349C176.042 16.4278 176.018 16.0793 176.117 15.7559C176.133 15.7063 176.143 15.655 176.147 15.6031C176.156 15.4549 176.117 15.3077 176.036 15.1834C175.955 15.0591 175.836 14.9642 175.696 14.9128C175.557 14.8614 175.405 14.8563 175.263 14.8981C175.12 14.94 174.995 15.0266 174.906 15.1451C174.875 15.1872 174.849 15.2327 174.829 15.2808C174.694 15.5908 174.45 15.8404 174.143 15.982C173.836 16.1235 173.488 16.1473 173.165 16.0486C173.115 16.0326 173.064 16.0226 173.012 16.0186C172.864 16.0096 172.717 16.0486 172.592 16.1297C172.468 16.2109 172.373 16.3299 172.322 16.4692C172.271 16.6085 172.265 16.7606 172.307 16.9031C172.349 17.0455 172.436 17.1707 172.554 17.2601C172.596 17.2908 172.642 17.3165 172.69 17.3365C173 17.4715 173.249 17.7159 173.391 18.0229C173.532 18.33 173.556 18.6785 173.457 19.0019C173.441 19.0515 173.431 19.1028 173.427 19.1547C173.418 19.3029 173.457 19.4501 173.538 19.5744C173.619 19.6987 173.738 19.7936 173.878 19.845C174.017 19.8964 174.169 19.9015 174.311 19.8597C174.454 19.8178 174.579 19.7312 174.668 19.6127C174.699 19.5706 174.725 19.5251 174.745 19.477C174.88 19.167 175.124 18.9174 175.431 18.7758C175.738 18.6342 176.086 18.6105 176.409 18.7092C176.459 18.7251 176.51 18.7352 176.562 18.7391C176.71 18.7482 176.857 18.7092 176.982 18.6281C177.106 18.5469 177.201 18.4279 177.252 18.2886C177.303 18.1493 177.309 17.9972 177.267 17.8547C177.225 17.7123 177.138 17.5871 177.02 17.4977C176.978 17.467 176.932 17.4413 176.884 17.4213Z" fill="#CBCBCB"/>
<path d="M203.123 78.5463C202.813 78.4113 202.563 78.1669 202.422 77.8599C202.28 77.5528 202.256 77.2043 202.355 76.8809C202.371 76.8313 202.381 76.78 202.385 76.7281C202.394 76.5799 202.355 76.4327 202.274 76.3084C202.193 76.1841 202.074 76.0892 201.935 76.0378C201.795 75.9864 201.643 75.9813 201.501 76.0231C201.359 76.065 201.233 76.1516 201.144 76.2701C201.113 76.3122 201.088 76.3577 201.068 76.4058C200.933 76.7158 200.689 76.9654 200.382 77.107C200.075 77.2485 199.726 77.2723 199.403 77.1736C199.353 77.1576 199.302 77.1476 199.25 77.1436C199.102 77.1346 198.955 77.1736 198.831 77.2547C198.706 77.3359 198.612 77.4549 198.56 77.5942C198.509 77.7335 198.504 77.8856 198.546 78.0281C198.587 78.1705 198.674 78.2957 198.792 78.3851C198.835 78.4158 198.88 78.4415 198.928 78.4615C199.238 78.5965 199.487 78.8409 199.629 79.1479C199.77 79.455 199.794 79.8035 199.696 80.1269C199.68 80.1765 199.67 80.2278 199.666 80.2797C199.657 80.4279 199.696 80.5751 199.777 80.6994C199.858 80.8237 199.977 80.9186 200.116 80.97C200.255 81.0214 200.407 81.0265 200.55 80.9847C200.692 80.9428 200.817 80.8562 200.907 80.7377C200.937 80.6956 200.963 80.6501 200.983 80.602C201.118 80.292 201.362 80.0424 201.669 79.9008C201.976 79.7592 202.324 79.7355 202.648 79.8342C202.697 79.8501 202.749 79.8602 202.8 79.8641C202.949 79.8732 203.096 79.8342 203.22 79.7531C203.344 79.6719 203.439 79.5529 203.49 79.4136C203.542 79.2743 203.547 79.1222 203.505 78.9797C203.463 78.8373 203.377 78.7121 203.258 78.6227C203.216 78.592 203.171 78.5663 203.123 78.5463Z" fill="#F1F1F1"/>
<path d="M65.5542 42.9213C65.2443 42.7863 64.9948 42.5419 64.8533 42.2349C64.7118 41.9278 64.6881 41.5793 64.7867 41.2559C64.8027 41.2063 64.8127 41.155 64.8167 41.1031C64.8257 40.9549 64.7867 40.8077 64.7056 40.6834C64.6245 40.5591 64.5055 40.4642 64.3663 40.4128C64.2271 40.3614 64.075 40.3563 63.9326 40.3981C63.7902 40.44 63.6651 40.5266 63.5758 40.6451C63.545 40.6872 63.5194 40.7327 63.4993 40.7808C63.3643 41.0908 63.1201 41.3404 62.8132 41.482C62.5062 41.6235 62.1579 41.6473 61.8346 41.5486C61.7851 41.5326 61.7338 41.5226 61.6819 41.5186C61.5337 41.5096 61.3866 41.5486 61.2624 41.6297C61.1381 41.7109 61.0433 41.8299 60.9919 41.9692C60.9405 42.1085 60.9354 42.2606 60.9772 42.4031C61.019 42.5455 61.1056 42.6707 61.2241 42.7601C61.2661 42.7908 61.3117 42.8165 61.3597 42.8365C61.6696 42.9715 61.9191 43.2159 62.0606 43.5229C62.2021 43.83 62.2258 44.1785 62.1272 44.5019C62.1113 44.5515 62.1012 44.6028 62.0973 44.6547C62.0882 44.8029 62.1272 44.9501 62.2083 45.0744C62.2894 45.1987 62.4084 45.2936 62.5476 45.345C62.6869 45.3964 62.8389 45.4015 62.9813 45.3597C63.1237 45.3178 63.2488 45.2312 63.3382 45.1127C63.3689 45.0706 63.3946 45.0251 63.4146 44.977C63.5496 44.667 63.7938 44.4174 64.1007 44.2758C64.4077 44.1342 64.756 44.1105 65.0793 44.2092C65.1289 44.2251 65.1801 44.2352 65.2321 44.2391C65.3802 44.2482 65.5273 44.2092 65.6516 44.1281C65.7758 44.0469 65.8707 43.9279 65.922 43.7886C65.9734 43.6493 65.9785 43.4972 65.9367 43.3547C65.8949 43.2123 65.8083 43.0871 65.6898 42.9977C65.6478 42.967 65.6023 42.9413 65.5542 42.9213Z" fill="#F1F1F1"/>
<path d="M122.944 21C124.187 21 125.193 19.9926 125.193 18.75C125.193 17.5074 124.187 16.5 122.944 16.5C121.702 16.5 120.695 17.5074 120.695 18.75C120.695 19.9926 121.702 21 122.944 21Z" fill="#F1F1F1"/>
<path d="M242.896 15C244.138 15 245.145 13.9926 245.145 12.75C245.145 11.5074 244.138 10.5 242.896 10.5C241.653 10.5 240.646 11.5074 240.646 12.75C240.646 13.9926 241.653 15 242.896 15Z" fill="#006C67"/>
<path d="M68.2178 4.5C69.46 4.5 70.4669 3.49264 70.4669 2.25C70.4669 1.00736 69.46 0 68.2178 0C66.9757 0 65.9688 1.00736 65.9688 2.25C65.9688 3.49264 66.9757 4.5 68.2178 4.5Z" fill="#CBCBCB"/>
<path d="M59.5674 106.759C68.4833 106.759 75.7111 99.5283 75.7111 90.6087C75.7111 81.6892 68.4833 74.4585 59.5674 74.4585C50.6516 74.4585 43.4238 81.6892 43.4238 90.6087C43.4238 99.5283 50.6516 106.759 59.5674 106.759Z" fill="#2F2E41"/>
<path d="M57.1153 103.284H52.2109V112.074H57.1153V103.284Z" fill="#2F2E41"/>
<path d="M66.9239 103.284H62.0195V112.074H66.9239V103.284Z" fill="#2F2E41"/>
<path d="M56.2979 113.71C58.5551 113.71 60.3849 113.023 60.3849 112.176C60.3849 111.33 58.5551 110.643 56.2979 110.643C54.0407 110.643 52.2109 111.33 52.2109 112.176C52.2109 113.023 54.0407 113.71 56.2979 113.71Z" fill="#2F2E41"/>
<path d="M66.1065 113.505C68.3637 113.505 70.1935 112.819 70.1935 111.972C70.1935 111.125 68.3637 110.439 66.1065 110.439C63.8493 110.439 62.0195 111.125 62.0195 111.972C62.0195 112.819 63.8493 113.505 66.1065 113.505Z" fill="#2F2E41"/>
<path d="M76.9643 83.5514C80.4605 80.0511 82.4043 76.3234 81.3059 75.2254C80.2075 74.1274 76.4828 76.0749 72.9866 79.5752C69.4905 83.0755 67.5467 86.8032 68.6451 87.9012C69.7435 88.9992 73.4681 87.0517 76.9643 83.5514Z" fill="#2F2E41"/>
<path d="M46.5559 89.026C47.6543 87.928 45.7105 84.2003 42.2143 80.7C38.7181 77.1997 34.9935 75.2523 33.8951 76.3503C32.7967 77.4483 34.7405 81.1759 38.2366 84.6763C41.7328 88.1766 45.4575 90.124 46.5559 89.026Z" fill="#2F2E41"/>
<path d="M58.8885 93.8397C61.9357 93.8397 64.406 91.3684 64.406 88.32C64.406 85.2715 61.9357 82.8003 58.8885 82.8003C55.8413 82.8003 53.3711 85.2715 53.3711 88.32C53.3711 91.3684 55.8413 93.8397 58.8885 93.8397Z" fill="white"/>
<path d="M58.8899 90.1598C59.9057 90.1598 60.7291 89.336 60.7291 88.3199C60.7291 87.3037 59.9057 86.48 58.8899 86.48C57.8742 86.48 57.0508 87.3037 57.0508 88.3199C57.0508 89.336 57.8742 90.1598 58.8899 90.1598Z" fill="#3F3D56"/>
<path d="M63.2694 98.5284C63.4398 99.465 63.2313 100.431 62.6898 101.214C62.1483 101.997 61.3181 102.532 60.3818 102.703C59.4456 102.873 58.48 102.665 57.6974 102.123C56.9149 101.581 56.3795 100.751 56.209 99.8142L56.2078 99.8073C55.8547 97.8565 57.3624 97.1661 59.3124 96.813C61.2625 96.4598 62.9164 96.5776 63.2694 98.5284Z" fill="white"/>
<path d="M75.3979 107.559C75.0345 107.559 74.6862 107.704 74.4292 107.961C74.1723 108.218 74.0278 108.566 74.0273 108.93V111.794C74.0278 112.157 74.1723 112.506 74.4292 112.763C74.6862 113.02 75.0345 113.164 75.3979 113.165H97.45C97.8134 113.164 98.1617 113.02 98.4187 112.763C98.6756 112.506 98.8201 112.157 98.8206 111.794V108.93C98.8201 108.566 98.6756 108.218 98.4187 107.961C98.1617 107.704 97.8134 107.559 97.45 107.559H75.3979Z" fill="#E5E5E5"/>
<path d="M88.0806 105.651C87.944 105.572 87.7818 105.551 87.6296 105.592C87.4773 105.633 87.3475 105.732 87.2687 105.869L86.4492 107.289L85.6461 105.701C85.5749 105.56 85.4508 105.454 85.301 105.405C85.1513 105.355 84.9881 105.368 84.8475 105.439C84.7068 105.51 84.6002 105.634 84.5511 105.784C84.502 105.934 84.5143 106.097 84.5855 106.238L85.2104 107.474H84.9814V113.25H88.0381V107.474H87.7151L88.2981 106.464C88.3769 106.327 88.3983 106.165 88.3575 106.012C88.3167 105.86 88.2171 105.73 88.0806 105.651Z" fill="#006C67"/>
<path d="M59.1523 80.0156C56.2839 80.0127 53.4323 79.5769 50.6939 78.7229C50.5037 78.6615 50.3377 78.5415 50.2197 78.38C50.1017 78.2185 50.0378 78.0239 50.0371 77.8239V71.25C50.0374 71.0014 50.1362 70.7632 50.3119 70.5874C50.4876 70.4117 50.7258 70.3128 50.9742 70.3125H67.4674C67.7159 70.3128 67.9541 70.4117 68.1298 70.5874C68.3054 70.7632 68.4043 71.0014 68.4046 71.25V77.82C68.4047 78.0217 68.3399 78.2181 68.2198 78.3801C68.0997 78.5422 67.9307 78.6612 67.7378 78.7198C64.9549 79.5704 62.0621 80.007 59.1523 80.0156Z" fill="#006C67"/>
<path opacity="0.2" d="M68.2172 71.25V72.3487L59.2921 75.48C59.1253 75.5376 58.9436 75.5349 58.7785 75.4725L50.2246 72.2588V71.25C50.2252 71.0513 50.3043 70.8608 50.4448 70.7203C50.5853 70.5798 50.7756 70.5006 50.9743 70.5H67.4675C67.6662 70.5006 67.8565 70.5798 67.997 70.7203C68.1375 70.8608 68.2166 71.0513 68.2172 71.25Z" fill="black"/>
<path d="M59.0419 74.2093C58.9295 74.2094 58.8179 74.1892 58.7126 74.1498L45.9299 69.348C45.7492 69.2801 45.5938 69.158 45.4851 68.9984C45.3763 68.8389 45.3195 68.6496 45.3224 68.4565C45.3252 68.2633 45.3876 68.0758 45.501 67.9195C45.6145 67.7632 45.7734 67.6458 45.956 67.5832L57.9831 63.467C58.1774 63.4012 58.3879 63.4003 58.5827 63.4645L72.006 67.9409C72.1914 68.0027 72.3529 68.121 72.4678 68.2792C72.5826 68.4373 72.6452 68.6275 72.6467 68.823C72.6482 69.0186 72.5886 69.2097 72.4761 69.3696C72.3637 69.5295 72.2041 69.6503 72.0196 69.715L59.3518 74.1567C59.2522 74.1916 59.1475 74.2094 59.0419 74.2093Z" fill="#006C67"/>
<path d="M47.4139 73.875H47.0391V68.4375H58.4719V68.8125H47.4139V73.875Z" fill="#3F3D56"/>
<path d="M47.2263 75C47.6403 75 47.9759 74.6642 47.9759 74.25C47.9759 73.8358 47.6403 73.5 47.2263 73.5C46.8122 73.5 46.4766 73.8358 46.4766 74.25C46.4766 74.6642 46.8122 75 47.2263 75Z" fill="#3F3D56"/>
<path d="M152.905 106.759C161.821 106.759 169.049 99.5283 169.049 90.6087C169.049 81.6892 161.821 74.4585 152.905 74.4585C143.989 74.4585 136.762 81.6892 136.762 90.6087C136.762 99.5283 143.989 106.759 152.905 106.759Z" fill="#2F2E41"/>
<path d="M150.453 103.284H145.549V112.074H150.453V103.284Z" fill="#2F2E41"/>
<path d="M160.262 103.284H155.357V112.074H160.262V103.284Z" fill="#2F2E41"/>
<path d="M149.636 113.71C151.893 113.71 153.723 113.023 153.723 112.176C153.723 111.33 151.893 110.643 149.636 110.643C147.379 110.643 145.549 111.33 145.549 112.176C145.549 113.023 147.379 113.71 149.636 113.71Z" fill="#2F2E41"/>
<path d="M159.444 113.505C161.702 113.505 163.531 112.819 163.531 111.972C163.531 111.125 161.702 110.439 159.444 110.439C157.187 110.439 155.357 111.125 155.357 111.972C155.357 112.819 157.187 113.505 159.444 113.505Z" fill="#2F2E41"/>
<path d="M170.3 83.5514C173.796 80.0511 175.74 76.3235 174.642 75.2254C173.543 74.1274 169.819 76.0749 166.323 79.5752C162.826 83.0755 160.883 86.8032 161.981 87.9012C163.079 88.9992 166.804 87.0518 170.3 83.5514Z" fill="#2F2E41"/>
<path d="M138.496 98.5423C141.318 94.4778 142.571 90.4646 141.295 89.5786C140.02 88.6926 136.699 91.2694 133.878 95.3339C131.056 99.3984 129.803 103.412 131.079 104.298C132.354 105.184 135.675 102.607 138.496 98.5423Z" fill="#2F2E41"/>
<path d="M152.226 93.8397C155.274 93.8397 157.744 91.3684 157.744 88.32C157.744 85.2715 155.274 82.8003 152.226 82.8003C149.179 82.8003 146.709 85.2715 146.709 88.32C146.709 91.3684 149.179 93.8397 152.226 93.8397Z" fill="white"/>
<path d="M154.099 88.2848C155.115 88.2848 155.938 87.461 155.938 86.4449C155.938 85.4287 155.115 84.605 154.099 84.605C153.083 84.605 152.26 85.4287 152.26 86.4449C152.26 87.461 153.083 88.2848 154.099 88.2848Z" fill="#3F3D56"/>
<path d="M158.84 98.5284C159.381 100.479 157.41 102.348 154.436 102.703C151.463 103.058 148.614 101.765 148.073 99.8142L148.071 99.8073C147.532 97.8565 149.832 97.1661 152.805 96.813C155.779 96.4598 158.301 96.5776 158.84 98.5284Z" fill="white"/>
<path d="M147.256 81.1035C144.594 82.1713 141.786 82.8312 138.926 83.0609C138.727 83.075 138.528 83.0255 138.358 82.9198C138.189 82.814 138.057 82.6572 137.982 82.4719L135.53 76.3727C135.438 76.142 135.441 75.884 135.538 75.6554C135.636 75.4267 135.82 75.2461 136.05 75.1531L151.353 68.9975C151.583 68.9051 151.841 68.9079 152.07 69.0054C152.298 69.1029 152.479 69.2871 152.572 69.5176L155.022 75.6133C155.097 75.8004 155.11 76.0068 155.059 76.2019C155.008 76.3971 154.896 76.5706 154.739 76.697C152.474 78.5248 149.953 80.0095 147.256 81.1035Z" fill="#006C67"/>
<path opacity="0.2" d="M152.397 69.5877L152.807 70.6071L145.694 76.8433C145.561 76.959 145.391 77.0244 145.215 77.0281L136.08 77.2388L135.704 76.3029C135.63 76.1183 135.633 75.9121 135.711 75.7292C135.789 75.5464 135.936 75.4019 136.12 75.3272L151.422 69.1717C151.607 69.0981 151.813 69.1005 151.996 69.1784C152.178 69.2564 152.323 69.4035 152.397 69.5877Z" fill="black"/>
<path d="M144.99 75.7576C144.885 75.7996 144.774 75.8226 144.662 75.8253L131.012 76.1409C130.818 76.1454 130.629 76.0901 130.468 75.9826C130.308 75.8751 130.185 75.7207 130.115 75.5405C130.046 75.3602 130.034 75.163 130.081 74.9756C130.128 74.7883 130.231 74.62 130.378 74.4938L140.001 66.186C140.157 66.0524 140.352 65.9731 140.557 65.9599L154.68 65.1033C154.875 65.0914 155.069 65.1409 155.235 65.2448C155.4 65.3487 155.529 65.5018 155.604 65.6826C155.678 65.8635 155.694 66.0631 155.649 66.2534C155.605 66.4438 155.501 66.6154 155.354 66.7442L145.258 75.5932C145.178 75.6627 145.088 75.7183 144.99 75.7576Z" fill="#006C67"/>
<path d="M134.075 79.7878L133.727 79.9277L131.699 74.8828L142.307 70.6157L142.446 70.9637L132.187 75.091L134.075 79.7878Z" fill="#3F3D56"/>
<path d="M134.041 80.9556C134.455 80.9556 134.79 80.6198 134.79 80.2056C134.79 79.7914 134.455 79.4556 134.041 79.4556C133.627 79.4556 133.291 79.7914 133.291 80.2056C133.291 80.6198 133.627 80.9556 134.041 80.9556Z" fill="#3F3D56"/>
<path d="M214.364 52.4511C211.931 50.9319 209.74 49.0541 207.867 46.8812C207.737 46.7285 207.66 46.5388 207.645 46.3394C207.63 46.1399 207.679 45.9409 207.784 45.7707L211.257 40.1901C211.389 39.9793 211.598 39.8292 211.84 39.7729C212.082 39.7166 212.337 39.7586 212.548 39.8898L226.549 48.6107C226.76 48.7424 226.91 48.9522 226.966 49.1943C227.022 49.4364 226.98 49.691 226.849 49.9021L223.378 55.4794C223.272 55.6507 223.113 55.7832 222.925 55.8572C222.738 55.9313 222.532 55.943 222.337 55.8907C219.525 55.1413 216.839 53.9824 214.364 52.4511Z" fill="#006C67"/>
<path opacity="0.2" d="M226.69 49.8026L226.109 50.7353L216.878 48.6742C216.706 48.6349 216.554 48.5366 216.446 48.3963L210.883 41.1451L211.416 40.2888C211.521 40.1204 211.689 40.0006 211.883 39.9556C212.076 39.9106 212.279 39.944 212.448 40.0485L226.45 48.7695C226.618 48.875 226.738 49.0429 226.783 49.2365C226.828 49.4301 226.794 49.6336 226.69 49.8026Z" fill="black"/>
<path d="M217.338 47.4638C217.243 47.4044 217.159 47.3283 217.09 47.2391L208.776 36.4039C208.658 36.2507 208.591 36.0649 208.583 35.872C208.575 35.679 208.627 35.4882 208.731 35.3258C208.835 35.1634 208.988 35.0372 209.166 34.9645C209.345 34.8918 209.542 34.8761 209.73 34.9196L222.115 37.7848C222.315 37.8316 222.494 37.9421 222.625 38.0997L231.655 48.9974C231.78 49.1479 231.855 49.3337 231.869 49.5287C231.883 49.7238 231.835 49.9183 231.733 50.085C231.631 50.2518 231.48 50.3825 231.3 50.4588C231.12 50.5351 230.92 50.5532 230.73 50.5106L217.629 47.583C217.526 47.56 217.428 47.5197 217.338 47.4638Z" fill="#006C67"/>
<path d="M207.642 41.031L207.324 40.8327L210.197 36.2168L219.903 42.2622L219.704 42.5802L210.317 36.7332L207.642 41.031Z" fill="#3F3D56"/>
<path d="M207.285 42C207.699 42 208.035 41.6642 208.035 41.25C208.035 40.8358 207.699 40.5 207.285 40.5C206.871 40.5 206.535 40.8358 206.535 41.25C206.535 41.6642 206.871 42 207.285 42Z" fill="#3F3D56"/>
<path d="M253.419 88.384C262.335 88.384 269.563 81.1533 269.563 72.2337C269.563 63.3142 262.335 56.0835 253.419 56.0835C244.503 56.0835 237.275 63.3142 237.275 72.2337C237.275 81.1533 244.503 88.384 253.419 88.384Z" fill="#2F2E41"/>
<path d="M264.611 80.6079L260.426 83.1665L265.008 90.6673L269.193 88.1087L264.611 80.6079Z" fill="#2F2E41"/>
<path d="M256.241 85.7251L252.057 88.2837L256.639 95.7845L260.824 93.2259L256.241 85.7251Z" fill="#2F2E41"/>
<path d="M266.558 91.6363C268.484 90.4587 269.688 88.9184 269.246 88.1959C268.805 87.4733 266.886 87.8422 264.96 89.0197C263.034 90.1973 261.83 91.7376 262.272 92.4601C262.713 93.1827 264.632 92.8138 266.558 91.6363Z" fill="#2F2E41"/>
<path d="M258.082 96.5791C260.008 95.4016 261.211 93.8613 260.77 93.1387C260.329 92.4162 258.409 92.785 256.483 93.9626C254.557 95.1401 253.354 96.6805 253.795 97.403C254.237 98.1255 256.156 97.7567 258.082 96.5791Z" fill="#2F2E41"/>
<path d="M244.341 69.526C245.439 68.428 243.496 64.7003 239.999 61.2C236.503 57.6997 232.779 55.7523 231.68 56.8503C230.582 57.9483 232.526 61.6759 236.022 65.1763C239.518 68.6766 243.243 70.624 244.341 69.526Z" fill="#2F2E41"/>
<path d="M275.246 85.9228C276.522 85.0368 275.269 81.0236 272.448 76.9591C269.626 72.8946 266.306 70.3179 265.03 71.2039C263.755 72.0899 265.008 76.1031 267.829 80.1676C270.65 84.2321 273.971 86.8088 275.246 85.9228Z" fill="#2F2E41"/>
<path d="M248.474 73.2147C251.522 73.2147 253.992 70.7434 253.992 67.695C253.992 64.6465 251.522 62.1753 248.474 62.1753C245.427 62.1753 242.957 64.6465 242.957 67.695C242.957 70.7434 245.427 73.2147 248.474 73.2147Z" fill="white"/>
<path d="M246.601 67.6598C247.617 67.6598 248.44 66.836 248.44 65.8199C248.44 64.8037 247.617 63.98 246.601 63.98C245.585 63.98 244.762 64.8037 244.762 65.8199C244.762 66.836 245.585 67.6598 246.601 67.6598Z" fill="#3F3D56"/>
<path d="M241.371 76.9023C240.325 78.6171 241.719 80.9371 244.485 82.0841C247.251 83.231 250.341 82.7706 251.387 81.0558L251.391 81.0497C252.434 79.3337 250.408 78.0498 247.641 76.9046C244.874 75.7593 242.415 75.1863 241.371 76.9023Z" fill="white"/>
<path d="M248.002 51.9553C249.443 46.1476 255.806 42.73 262.214 44.3217C268.622 45.9134 272.647 51.9118 271.206 57.7194C269.764 63.5271 264.982 63.5458 258.574 61.9541C252.167 60.3623 246.56 57.7629 248.002 51.9553Z" fill="#E6E6E6"/>
<path d="M304.125 114H0.874846C0.775431 114 0.680087 113.96 0.60979 113.89C0.539492 113.82 0.5 113.724 0.5 113.625C0.5 113.526 0.539492 113.43 0.60979 113.36C0.680087 113.29 0.775431 113.25 0.874846 113.25H304.125C304.225 113.25 304.32 113.29 304.39 113.36C304.461 113.43 304.5 113.526 304.5 113.625C304.5 113.724 304.461 113.82 304.39 113.89C304.32 113.96 304.225 114 304.125 114Z" fill="#CBCBCB"/>
</g>
<defs>
<clipPath id="clip0_4313_2038">
<rect width="304" height="114" fill="white" transform="translate(0.5)"/>
</clipPath>
</defs>
</svg>
