<svg width="95" height="95" viewBox="0 0 95 95" fill="none" xmlns="http://www.w3.org/2000/svg">
<g clip-path="url(#clip0_4349_204)">
<path d="M60.3097 21.6404H34.7113C34.128 21.6412 33.5688 21.8764 33.1563 22.2945C32.7438 22.7126 32.5117 23.2795 32.511 23.8708V81.5415L32.2177 81.6322L25.938 83.5816C25.6404 83.6736 25.3189 83.6421 25.0442 83.4941C24.7694 83.3461 24.5639 83.0936 24.4726 82.7921L5.79339 20.9431C5.70249 20.6414 5.73347 20.3155 5.87953 20.0369C6.02559 19.7584 6.27477 19.55 6.57231 19.4576L16.2493 16.454L44.3032 7.74952L53.9802 4.74592C54.1274 4.69997 54.2822 4.68392 54.4356 4.69867C54.589 4.71342 54.738 4.7587 54.8741 4.83189C55.0102 4.90509 55.1308 5.00478 55.2288 5.12526C55.3269 5.24573 55.4006 5.38462 55.4456 5.53399L60.2202 21.3431L60.3097 21.6404Z" fill="#F2F2F2"/>
<path d="M65.8949 21.3432L60.1404 2.2896C60.0446 1.97214 59.8881 1.6769 59.6798 1.42078C59.4714 1.16465 59.2153 0.952646 58.9261 0.796883C58.6369 0.641121 58.3203 0.544649 57.9943 0.512985C57.6683 0.481321 57.3393 0.515085 57.0262 0.612344L43.421 4.83375L15.3685 13.5397L1.76327 17.7626C1.13125 17.9594 0.60204 18.4022 0.291817 18.9941C-0.0184058 19.5859 -0.0843015 20.2784 0.108597 20.9194L19.7764 86.0366C19.9331 86.5541 20.2493 87.007 20.6786 87.329C21.1079 87.6509 21.6276 87.8249 22.1616 87.8254C22.4088 87.8255 22.6545 87.7879 22.8906 87.7139L32.217 84.8203L32.5104 84.7281V84.4174L32.217 84.5081L22.8041 87.4299C22.2462 87.6023 21.6437 87.5433 21.1286 87.266C20.6135 86.9886 20.228 86.5155 20.0566 85.9504L0.390297 20.8317C0.305378 20.5517 0.275782 20.2574 0.303201 19.9658C0.330621 19.6742 0.414516 19.3909 0.550087 19.1322C0.685658 18.8735 0.870243 18.6445 1.09327 18.4582C1.31629 18.2719 1.57337 18.1321 1.84979 18.0466L15.455 13.8237L43.5075 5.11924L57.1128 0.896351C57.3225 0.831491 57.5404 0.79842 57.7596 0.798213C58.2301 0.799284 58.6878 0.953026 59.0658 1.23692C59.4438 1.52082 59.7222 1.91995 59.8602 2.37585L65.5884 21.3432L65.6793 21.6406H65.9844L65.8949 21.3432Z" fill="#3F3D56"/>
<path d="M17.9956 19.5063C17.7129 19.5061 17.4376 19.414 17.2103 19.2436C16.983 19.0733 16.8155 18.8335 16.7324 18.5596L14.843 12.3038C14.7923 12.1358 14.7746 11.9592 14.7912 11.7843C14.8077 11.6093 14.8581 11.4394 14.9394 11.2842C15.0208 11.129 15.1315 10.9916 15.2652 10.8797C15.399 10.7679 15.5531 10.6839 15.7189 10.6324L41.5269 2.62327C41.8617 2.51971 42.2234 2.55503 42.5325 2.72147C42.8417 2.88792 43.073 3.17189 43.1758 3.51107L45.0652 9.76693C45.1673 10.1063 45.1324 10.4729 44.9682 10.7862C44.804 11.0996 44.5239 11.3341 44.1894 11.4384L18.3813 19.4475C18.2563 19.4864 18.1263 19.5062 17.9956 19.5063Z" fill="#006C67"/>
<path d="M27.8927 7.18455C29.513 7.18455 30.8265 5.8531 30.8265 4.21068C30.8265 2.56826 29.513 1.23682 27.8927 1.23682C26.2725 1.23682 24.959 2.56826 24.959 4.21068C24.959 5.8531 26.2725 7.18455 27.8927 7.18455Z" fill="#006C67"/>
<path d="M27.8929 6.09392C28.9189 6.09392 29.7506 5.25081 29.7506 4.21078C29.7506 3.17075 28.9189 2.32764 27.8929 2.32764C26.8669 2.32764 26.0352 3.17075 26.0352 4.21078C26.0352 5.25081 26.8669 6.09392 27.8929 6.09392Z" fill="white"/>
<path d="M88.3994 87.0655H38.8191C38.4885 87.0651 38.1716 86.9318 37.9379 86.6948C37.7041 86.4579 37.5726 86.1367 37.5723 85.8016V25.5808C37.5726 25.2457 37.7041 24.9244 37.9379 24.6875C38.1716 24.4505 38.4885 24.3173 38.8191 24.3169H88.3994C88.73 24.3173 89.0469 24.4506 89.2806 24.6875C89.5144 24.9244 89.6459 25.2457 89.6463 25.5808V85.8016C89.6459 86.1366 89.5144 86.4579 89.2806 86.6948C89.0469 86.9318 88.73 87.0651 88.3994 87.0655Z" fill="#E6E6E6"/>
<path d="M65.5901 21.3428H34.7124C34.0514 21.3437 33.4176 21.6103 32.9502 22.0842C32.4827 22.558 32.2197 23.2004 32.2188 23.8706V84.5077L32.5121 84.417V23.8706C32.5128 23.2792 32.7449 22.7123 33.1574 22.2942C33.5698 21.8761 34.1291 21.6409 34.7124 21.6402H65.6811L65.5901 21.3428ZM92.5072 21.3428H34.7124C34.0514 21.3437 33.4176 21.6103 32.9502 22.0842C32.4827 22.558 32.2197 23.2004 32.2188 23.8706V91.9721C32.2197 92.6422 32.4827 93.2846 32.9502 93.7584C33.4176 94.2323 34.0514 94.4989 34.7124 94.4999H92.5072C93.1683 94.4989 93.802 94.2323 94.2695 93.7584C94.7369 93.2846 95 92.6422 95.0009 91.9721V23.8706C95 23.2004 94.7369 22.558 94.2695 22.0842C93.802 21.6103 93.1683 21.3437 92.5072 21.3428ZM94.7075 91.9721C94.7068 92.5634 94.4748 93.1303 94.0623 93.5484C93.6498 93.9665 93.0906 94.2018 92.5072 94.2025H34.7124C34.1291 94.2018 33.5698 93.9665 33.1574 93.5484C32.7449 93.1303 32.5128 92.5634 32.5121 91.9721V23.8706C32.5128 23.2792 32.7449 22.7123 33.1574 22.2942C33.5698 21.8761 34.1291 21.6409 34.7124 21.6402H92.5072C93.0906 21.6409 93.6498 21.8761 94.0623 22.2942C94.4748 22.7123 94.7068 23.2792 94.7075 23.8706V91.9721Z" fill="#3F3D56"/>
<path d="M77.1036 27.8855H50.1132C49.7631 27.8851 49.4276 27.744 49.1801 27.4931C48.9326 27.2422 48.7934 26.902 48.793 26.5472V20.0047C48.7934 19.6499 48.9326 19.3098 49.1801 19.0589C49.4276 18.808 49.7631 18.6669 50.1132 18.6665H77.1036C77.4536 18.6669 77.7892 18.808 78.0367 19.0589C78.2842 19.3098 78.4234 19.6499 78.4238 20.0047V26.5472C78.4234 26.902 78.2842 27.2422 78.0367 27.4931C77.7892 27.744 77.4536 27.8851 77.1036 27.8855Z" fill="#006C67"/>
<path d="M63.6095 19.1123C65.2298 19.1123 66.5433 17.7808 66.5433 16.1384C66.5433 14.496 65.2298 13.1646 63.6095 13.1646C61.9893 13.1646 60.6758 14.496 60.6758 16.1384C60.6758 17.7808 61.9893 19.1123 63.6095 19.1123Z" fill="#006C67"/>
<path d="M63.6092 17.9499C64.5961 17.9499 65.3961 17.1389 65.3961 16.1385C65.3961 15.1381 64.5961 14.3271 63.6092 14.3271C62.6223 14.3271 61.8223 15.1381 61.8223 16.1385C61.8223 17.1389 62.6223 17.9499 63.6092 17.9499Z" fill="white"/>
</g>
<defs>
<clipPath id="clip0_4349_204">
<rect width="95" height="94" fill="white" transform="translate(0 0.5)"/>
</clipPath>
</defs>
</svg>
