<svg width="174" height="174" viewBox="0 0 174 174" fill="none" xmlns="http://www.w3.org/2000/svg">
<g clip-path="url(#clip0)">
<path d="M174 87C174 111.097 164.203 132.904 148.376 148.66C139.398 157.595 128.484 164.583 116.314 168.937C107.156 172.214 97.2869 174 87 174C76.7157 174 66.8483 172.214 57.6898 168.937C57.4774 168.861 57.2677 168.787 57.0579 168.709C55.6627 168.197 54.2807 167.65 52.9174 167.069C42.6584 162.694 33.4082 156.408 25.621 148.656C9.79308 132.904 0 111.097 0 87C0 38.9506 38.9506 0 87 0C135.049 0 174 38.9506 174 87Z" fill="white"/>
<path d="M145.478 77.1393C145.478 93.4133 125.209 106.975 98.3383 109.997C94.6704 110.412 90.8817 110.629 87 110.629C54.7003 110.629 28.5177 95.6369 28.5177 77.1393C28.5177 58.6417 54.7003 43.6461 87 43.6461C90.8817 43.6461 94.6704 43.8625 98.3383 44.278C125.209 47.2995 145.478 60.8653 145.478 77.1393Z" fill="#ED32A2"/>
<path d="M145.478 77.1392C145.478 93.4132 125.209 106.975 98.3383 109.997C71.4641 106.978 51.1917 93.4132 51.1917 77.1392C51.1917 60.8652 71.4641 47.2967 98.3383 44.2779C125.209 47.2993 145.478 60.8652 145.478 77.1392Z" fill="#FC70BD"/>
<path d="M161.621 49.7103C161.621 49.7103 160.58 107.841 139.758 148.034H34.2393C13.4159 107.841 12.3751 49.7103 12.3751 49.7103L23.4824 45.1755C23.4824 45.1755 29.7151 67.0131 43.2159 76.8991C47.1719 79.7931 51.7452 81.6662 56.973 81.6662C80.0545 81.6662 79.7876 30.8051 79.7876 30.8051H94.2124C94.2124 30.8051 93.9456 81.6662 117.024 81.6662C140.106 81.6662 150.518 45.1755 150.518 45.1755L161.621 49.7103Z" fill="#FFD833"/>
<path d="M82.9445 148.034H34.2393C13.4159 107.841 12.3751 49.7102 12.3751 49.7102L23.4824 45.1754C23.4824 45.1754 29.7151 67.013 43.2159 76.899C42.8071 99.3009 45.4953 128.85 82.9445 148.034Z" fill="#FF9124"/>
<path d="M148.376 148.66C139.398 157.595 128.483 164.583 116.314 168.937H57.6897C57.4773 168.861 57.2676 168.787 57.0578 168.709C55.6626 168.197 54.2807 167.651 52.9173 167.069C42.6583 162.694 33.4082 156.408 25.621 148.656C27.8685 146.061 31.1886 144.42 34.8884 144.42H139.108C142.495 144.42 145.557 145.79 147.776 148.01C147.985 148.22 148.188 148.436 148.376 148.66Z" fill="#22B9DD"/>
<path d="M148.376 148.66C139.398 157.595 128.483 164.583 116.314 168.937H59.4155C58.6097 168.937 57.8212 168.859 57.0578 168.709C55.563 168.418 54.1638 167.856 52.9173 167.069C52.1288 166.578 51.4039 165.999 50.7482 165.346C48.5285 163.126 47.1572 160.062 47.1572 156.679C47.1572 149.91 52.6438 144.42 59.4155 144.42H139.108C142.495 144.42 145.557 145.79 147.776 148.01C147.985 148.22 148.188 148.436 148.376 148.66Z" fill="#7DDFF9"/>
<path d="M28.5721 35.2588C28.5721 41.757 24.2351 47.2396 18.2985 48.972C17.0267 49.3451 15.6779 49.5442 14.2854 49.5442C6.39597 49.5442 0 43.1482 0 35.2588C0 27.3681 6.39597 20.9721 14.2854 20.9721C15.6779 20.9721 17.0267 21.1712 18.2985 21.5443C24.2351 23.2767 28.5721 28.7606 28.5721 35.2588Z" fill="#FF9124"/>
<path d="M28.5721 35.259C28.5721 41.7571 24.2352 47.2398 18.2985 48.9722C12.3605 47.2438 8.02222 41.7571 8.02222 35.259C8.02222 28.7608 12.3605 23.2742 18.2985 21.5444C24.2352 23.2768 28.5721 28.7608 28.5721 35.259Z" fill="#FFD833"/>
<path d="M173.999 35.2588C173.999 43.1495 167.603 49.5455 159.712 49.5455C151.821 49.5455 145.425 43.1495 145.425 35.2588C145.425 27.3681 151.821 20.9721 159.712 20.9721C167.603 20.9721 173.999 27.3681 173.999 35.2588Z" fill="#FF9124"/>
<path d="M101.287 19.351C101.287 27.2418 94.8894 33.6377 86.9986 33.6377C79.1079 33.6377 72.7119 27.2418 72.7119 19.351C72.7119 11.4603 79.1079 5.06299 86.9986 5.06299C94.8894 5.06299 101.287 11.4603 101.287 19.351Z" fill="#FF9124"/>
<path d="M101.285 19.3512C101.285 25.8494 96.9497 31.332 91.0131 33.0644C85.0751 31.336 80.7355 25.8494 80.7355 19.3512C80.7355 12.853 85.0751 7.36641 91.0131 5.63666C96.9497 7.37039 101.285 12.853 101.285 19.3512Z" fill="#FFD833"/>
<path d="M173.999 35.259C173.999 41.7571 169.663 47.2398 163.726 48.9735C157.788 47.2438 153.449 41.7571 153.449 35.259C153.449 28.7608 157.788 23.2742 163.726 21.5444C169.663 23.2781 173.999 28.7608 173.999 35.259Z" fill="#FFD833"/>
<path d="M82.6882 131.408C75.4851 125.26 68.8091 118.584 62.6613 111.381C60.54 108.897 60.54 105.245 62.6613 102.76C68.8091 95.5585 75.4851 88.8824 82.6882 82.7333C85.172 80.6133 88.824 80.6133 91.3091 82.7333C98.5109 88.8824 105.187 95.5585 111.336 102.76C113.456 105.245 113.456 108.897 111.336 111.381C105.187 118.584 98.5109 125.26 91.3091 131.408C88.824 133.529 85.172 133.529 82.6882 131.408Z" fill="#FF9124"/>
<path d="M86.9986 125.112C80.5535 119.555 74.5146 113.516 68.9576 107.071C74.5146 100.627 80.5535 94.5882 86.9986 89.0312C93.4423 94.5882 99.4812 100.627 105.038 107.071C99.4812 113.516 93.4423 119.553 86.9986 125.112Z" fill="#844ABA"/>
<path d="M145.478 77.1393L155.513 73.6904C158.526 72.655 158.526 68.3936 155.513 67.3568L145.478 63.9093C144.503 63.5734 143.735 62.8061 143.399 61.8304L139.952 51.7957C138.916 48.7823 134.654 48.7823 133.618 51.7957L130.169 61.8304C129.834 62.8061 129.068 63.5734 128.091 63.9093L118.056 67.3568C115.042 68.3923 115.042 72.655 118.056 73.6904L128.091 77.1393C129.068 77.4752 129.834 78.2411 130.169 79.2182L133.618 89.2515C134.654 92.2663 138.915 92.2663 139.952 89.2515L143.399 79.2182C143.735 78.2411 144.503 77.4738 145.478 77.1393Z" fill="white"/>
<path d="M86.9987 89.0312L78.7257 102.057C76.7822 105.117 76.7822 109.025 78.7257 112.085L86.9987 125.112V89.0312Z" fill="white"/>
</g>
<defs>
<clipPath id="clip0">
<rect width="174" height="174" fill="white"/>
</clipPath>
</defs>
</svg>
