<svg width="24" height="25" viewBox="0 0 24 25" fill="none" xmlns="http://www.w3.org/2000/svg">
<path fill-rule="evenodd" clip-rule="evenodd" d="M5.70704 4.29634C5.51844 4.11418 5.26584 4.01338 5.00364 4.01566C4.74144 4.01794 4.49063 4.12311 4.30522 4.30852C4.11981 4.49393 4.01465 4.74474 4.01237 5.00694C4.01009 5.26913 4.11088 5.52173 4.29304 5.71034L18.293 19.7103C18.4816 19.8925 18.7342 19.9933 18.9964 19.991C19.2586 19.9887 19.5095 19.8836 19.6949 19.6982C19.8803 19.5127 19.9854 19.2619 19.9877 18.9997C19.99 18.7375 19.8892 18.4849 19.707 18.2963L18.234 16.8233C19.7916 15.5815 20.9433 13.9033 21.542 12.0033C20.268 7.94634 16.478 5.00334 12 5.00334C10.4325 5.00121 8.88654 5.36919 7.48804 6.07734L5.70804 4.29634H5.70704ZM9.96804 8.55634L11.482 10.0713C11.8211 9.98129 12.1779 9.98188 12.5167 10.0731C12.8555 10.1642 13.1644 10.3428 13.4125 10.5909C13.6606 10.839 13.8391 11.1479 13.9303 11.4867C14.0215 11.8255 14.0221 12.1822 13.932 12.5213L15.446 14.0353C15.897 13.2714 16.0812 12.3791 15.9697 11.499C15.8581 10.6189 15.4572 9.80083 14.8299 9.17352C14.2025 8.5462 13.3845 8.14523 12.5044 8.03369C11.6242 7.92214 10.732 8.10635 9.96804 8.55734V8.55634Z" fill="#667085"/>
<path d="M14.454 18.701L11.75 15.996C10.7777 15.9351 9.86103 15.5214 9.17206 14.8327C8.4831 14.1439 8.06918 13.2273 8.00801 12.255L4.33501 8.58203C3.49022 9.58805 2.85236 10.7509 2.45801 12.004C3.73201 16.061 7.52301 19.004 12 19.004C12.847 19.004 13.669 18.899 14.454 18.701Z" fill="#667085"/>
</svg>
