<svg width="20" height="21" viewBox="0 0 20 21" fill="none" xmlns="http://www.w3.org/2000/svg">
<path d="M10 12.0098C10.5304 12.0098 11.0391 11.7991 11.4142 11.424C11.7893 11.0489 12 10.5402 12 10.0098C12 9.47933 11.7893 8.97063 11.4142 8.59555C11.0391 8.22048 10.5304 8.00977 10 8.00977C9.46957 8.00977 8.96086 8.22048 8.58579 8.59555C8.21071 8.97063 8 9.47933 8 10.0098C8 10.5402 8.21071 11.0489 8.58579 11.424C8.96086 11.7991 9.46957 12.0098 10 12.0098Z" fill="#667085"/>
<path fill-rule="evenodd" clip-rule="evenodd" d="M0.458008 10.0098C1.73201 5.95277 5.52201 3.00977 10 3.00977C14.478 3.00977 18.268 5.95277 19.542 10.0098C18.268 14.0668 14.478 17.0098 10 17.0098C5.52201 17.0098 1.73201 14.0668 0.458008 10.0098ZM14 10.0098C14 11.0706 13.5786 12.088 12.8284 12.8382C12.0783 13.5883 11.0609 14.0098 10 14.0098C8.93914 14.0098 7.92173 13.5883 7.17158 12.8382C6.42143 12.088 6.00001 11.0706 6.00001 10.0098C6.00001 8.9489 6.42143 7.93148 7.17158 7.18134C7.92173 6.43119 8.93914 6.00977 10 6.00977C11.0609 6.00977 12.0783 6.43119 12.8284 7.18134C13.5786 7.93148 14 8.9489 14 10.0098Z" fill="#667085"/>
</svg>
