<svg width="29" height="29" viewBox="0 0 29 29" fill="none" xmlns="http://www.w3.org/2000/svg">
<path d="M19.3883 10.8344C18.9333 10.8344 18.5716 10.4728 18.5716 10.0178V8.52443C18.5725 7.95619 18.4541 7.39407 18.2242 6.87442C17.9943 6.35476 17.6579 5.88913 17.2368 5.50759C16.8157 5.12606 16.3192 4.83712 15.7794 4.65944C15.2397 4.48177 14.6687 4.41931 14.1033 4.4761C12.1433 4.66277 10.4283 6.65777 10.4283 8.73443V9.78443C10.4283 10.2394 10.0666 10.6011 9.61159 10.6011C9.15659 10.6011 8.79492 10.2394 8.79492 9.78443V8.73443C8.79492 5.81777 11.1516 3.12277 13.9399 2.85443C15.5616 2.70277 17.1249 3.2161 18.3266 4.31277C19.5166 5.3861 20.1933 6.9261 20.1933 8.52443V10.0178C20.1933 10.4728 19.8316 10.8344 19.3883 10.8344Z" fill="#1C315E"/>
<path d="M23.7857 10.9511C22.8057 9.86606 21.1957 9.34106 18.8391 9.34106H10.1591C7.80239 9.34106 6.19239 9.86606 5.21239 10.9511C4.08072 12.2111 4.11572 13.8911 4.24405 15.0577L5.06072 21.5561C5.30572 23.8311 6.22739 26.1644 11.2441 26.1644H17.7541C22.7707 26.1644 23.6924 23.8311 23.9374 21.5677L24.7541 15.0461C24.8824 13.8911 24.9174 12.2111 23.7857 10.9511ZM14.4991 22.1744C12.0607 22.1744 10.0774 20.1911 10.0774 17.7527C10.0774 15.3144 12.0607 13.3311 14.4991 13.3311C16.9374 13.3311 18.9207 15.3144 18.9207 17.7527C18.9207 20.1911 16.9374 22.1744 14.4991 22.1744Z" fill="url(#paint0_linear_4365_751)"/>
<path d="M18.9215 17.7549C18.9215 20.1933 16.9381 22.1766 14.4998 22.1766C12.0615 22.1766 10.0781 20.1933 10.0781 17.7549C10.0781 15.3166 12.0615 13.3333 14.4998 13.3333C16.9381 13.3333 18.9215 15.3166 18.9215 17.7549Z" fill="#1C315E"/>
<path d="M13.3332 19.8411C13.0415 19.8411 12.7499 19.6894 12.5865 19.4211C12.3415 19.0127 12.4699 18.4644 12.8899 18.2194L13.9282 17.6011V16.3411C13.9282 15.8627 14.3249 15.4661 14.8032 15.4661C15.2815 15.4661 15.6665 15.8511 15.6665 16.3411V18.0911C15.6665 18.3944 15.5032 18.6861 15.2465 18.8377L13.7882 19.7127C13.6482 19.7944 13.4849 19.8411 13.3332 19.8411Z" fill="#006C67"/>
<defs>
<linearGradient id="paint0_linear_4365_751" x1="13.8112" y1="20.1498" x2="11.7368" y2="8.85404" gradientUnits="userSpaceOnUse">
<stop stop-color="#227C70"/>
<stop offset="1" stop-color="#006C67"/>
</linearGradient>
</defs>
</svg>
