<svg width="24" height="24" viewBox="0 0 24 24" fill="none" xmlns="http://www.w3.org/2000/svg">
<path d="M17.62 10.752C17.4158 10.752 17.2199 10.6709 17.0755 10.5265C16.9311 10.3821 16.85 10.1862 16.85 9.982C16.85 9.612 16.48 8.842 15.86 8.172C15.25 7.522 14.58 7.142 14.02 7.142C13.8158 7.142 13.6199 7.06088 13.4755 6.91647C13.3311 6.77207 13.25 6.57622 13.25 6.372C13.25 5.952 13.6 5.602 14.02 5.602C15.02 5.602 16.07 6.142 16.99 7.112C17.85 8.022 18.4 9.152 18.4 9.972C18.4 10.402 18.05 10.752 17.62 10.752ZM21.23 10.75C21.0258 10.75 20.8299 10.6689 20.6855 10.5245C20.5411 10.3801 20.46 10.1842 20.46 9.98C20.46 6.43 17.57 3.55 14.03 3.55C13.8258 3.55 13.6299 3.46888 13.4855 3.32447C13.3411 3.18007 13.26 2.98422 13.26 2.78C13.26 2.36 13.6 2 14.02 2C18.42 2 22 5.58 22 9.98C22 10.4 21.65 10.75 21.23 10.75Z" fill="#1C315E"/>
<path d="M11.79 14.21L8.52 17.48C8.16 17.16 7.81 16.83 7.47 16.49C6.45877 15.472 5.5261 14.3789 4.68 13.22C3.86 12.08 3.2 10.94 2.72 9.81C2.24 8.67 2 7.58 2 6.54C2 5.86 2.12 5.21 2.36 4.61C2.6 4 2.98 3.44 3.51 2.94C4.15 2.31 4.85 2 5.59 2C5.87 2 6.15 2.06 6.4 2.18C6.66 2.3 6.89 2.48 7.07 2.74L9.39 6.01C9.57 6.26 9.7 6.49 9.79 6.71C9.88 6.92 9.93 7.13 9.93 7.32C9.93 7.56 9.86 7.8 9.72 8.03C9.59 8.26 9.4 8.5 9.16 8.74L8.4 9.53C8.29 9.64 8.24 9.77 8.24 9.93C8.24 10.01 8.25 10.08 8.27 10.16C8.3 10.24 8.33 10.3 8.35 10.36C8.53 10.69 8.84 11.12 9.28 11.64C9.73 12.16 10.21 12.69 10.73 13.22C11.09 13.57 11.44 13.91 11.79 14.21Z" fill="#006C67"/>
<path d="M21.9696 18.33C21.9683 18.7074 21.8829 19.0798 21.7196 19.42C21.5496 19.78 21.3296 20.12 21.0396 20.44C20.5496 20.98 20.0096 21.37 19.3996 21.62C19.3896 21.62 19.3796 21.63 19.3696 21.63C18.7796 21.87 18.1396 22 17.4496 22C16.4296 22 15.3396 21.76 14.1896 21.27C13.0396 20.78 11.8896 20.12 10.7496 19.29C10.3596 19 9.96961 18.71 9.59961 18.4L12.8696 15.13C13.1496 15.34 13.3996 15.5 13.6096 15.61C13.6596 15.63 13.7196 15.66 13.7896 15.69C13.8696 15.72 13.9496 15.73 14.0396 15.73C14.2096 15.73 14.3396 15.67 14.4496 15.56L15.2096 14.81C15.4596 14.56 15.6996 14.37 15.9296 14.25C16.1596 14.11 16.3896 14.04 16.6396 14.04C16.8296 14.04 17.0296 14.08 17.2496 14.17C17.4696 14.26 17.6996 14.39 17.9496 14.56L21.2596 16.91C21.5196 17.09 21.6996 17.3 21.8096 17.55C21.9096 17.8 21.9696 18.05 21.9696 18.33Z" fill="#1C315E"/>
</svg>
