<svg width="30" height="31" viewBox="0 0 30 31" fill="none" xmlns="http://www.w3.org/2000/svg">
<path opacity="0.4" d="M25.625 13.2375H22.0125C19.05 13.2375 16.6375 10.825 16.6375 7.8625V4.25C16.6375 3.5625 16.075 3 15.3875 3H10.0875C6.2375 3 3.125 5.5 3.125 9.9625V21.0375C3.125 25.5 6.2375 28 10.0875 28H19.9125C23.7625 28 26.875 25.5 26.875 21.0375V14.4875C26.875 13.8 26.3125 13.2375 25.625 13.2375Z" fill="#BDBDBD"/>
<path d="M19.7496 3.26261C19.2371 2.75011 18.3496 3.10011 18.3496 3.81261V8.17511C18.3496 10.0001 19.8996 11.5126 21.7871 11.5126C22.9746 11.5251 24.6246 11.5251 26.0371 11.5251C26.7496 11.5251 27.1246 10.6876 26.6246 10.1876C24.8246 8.37511 21.5996 5.11261 19.7496 3.26261Z" fill="#1C315E"/>
</svg>
