<svg width="30" height="31" viewBox="0 0 30 31" fill="none" xmlns="http://www.w3.org/2000/svg">
<path opacity="0.4" d="M25.625 13.2375H22.0125C19.05 13.2375 16.6375 10.825 16.6375 7.8625V4.25C16.6375 3.5625 16.075 3 15.3875 3H10.0875C6.2375 3 3.125 5.5 3.125 9.9625V21.0375C3.125 25.5 6.2375 28 10.0875 28H19.9125C23.7625 28 26.875 25.5 26.875 21.0375V14.4875C26.875 13.8 26.3125 13.2375 25.625 13.2375Z" fill="#BDBDBD"/>
<path d="M19.7496 3.26261C19.2371 2.75011 18.3496 3.10011 18.3496 3.81261V8.17511C18.3496 10.0001 19.8996 11.5126 21.7871 11.5126C22.9746 11.5251 24.6246 11.5251 26.0371 11.5251C26.7496 11.5251 27.1246 10.6876 26.6246 10.1876C24.8246 8.37511 21.5996 5.11261 19.7496 3.26261Z" fill="#1C315E"/>
<path d="M12.0027 19.18C12.0027 19.5533 11.9127 19.9033 11.7327 20.23C11.5593 20.5567 11.2827 20.82 10.9027 21.02C10.5293 21.22 10.056 21.32 9.48266 21.32H8.31266V24H6.91266V17.02H9.48266C10.0227 17.02 10.4827 17.1133 10.8627 17.3C11.2427 17.4867 11.526 17.7433 11.7127 18.07C11.906 18.3967 12.0027 18.7667 12.0027 19.18ZM9.42266 20.19C9.80932 20.19 10.096 20.1033 10.2827 19.93C10.4693 19.75 10.5627 19.5 10.5627 19.18C10.5627 18.5 10.1827 18.16 9.42266 18.16H8.31266V20.19H9.42266ZM15.4366 17.02C16.17 17.02 16.8133 17.1633 17.3666 17.45C17.9266 17.7367 18.3566 18.1467 18.6566 18.68C18.9633 19.2067 19.1166 19.82 19.1166 20.52C19.1166 21.22 18.9633 21.8333 18.6566 22.36C18.3566 22.88 17.9266 23.2833 17.3666 23.57C16.8133 23.8567 16.17 24 15.4366 24H12.9966V17.02H15.4366ZM15.3866 22.81C16.12 22.81 16.6866 22.61 17.0866 22.21C17.4866 21.81 17.6866 21.2467 17.6866 20.52C17.6866 19.7933 17.4866 19.2267 17.0866 18.82C16.6866 18.4067 16.12 18.2 15.3866 18.2H14.3966V22.81H15.3866ZM24.4746 17.02V18.15H21.5646V19.94H23.7946V21.05H21.5646V24H20.1646V17.02H24.4746Z" fill="#006C67"/>
</svg>
