<svg width="29" height="29" viewBox="0 0 29 29" fill="none" xmlns="http://www.w3.org/2000/svg">
<path d="M23.834 14.7332V16.7165C23.834 20.3915 21.734 21.9665 18.584 21.9665H8.08398C4.93398 21.9665 2.83398 20.3915 2.83398 16.7165V10.4165C2.83398 6.7415 4.93398 5.1665 8.08398 5.1665H11.234C11.0823 5.60984 11.0007 6.09984 11.0007 6.62484V11.1748C11.0007 12.3065 11.374 13.2632 12.039 13.9282C12.704 14.5932 13.6607 14.9665 14.7923 14.9665V16.5882C14.7923 17.1832 15.469 17.5448 15.9707 17.2182L19.3423 14.9665H22.3757C22.9007 14.9665 23.3906 14.8848 23.834 14.7332Z" fill="url(#paint0_linear_4365_803)"/>
<path d="M26.1665 6.62516V11.1752C26.1665 12.9135 25.2799 14.2202 23.8332 14.7335C23.3899 14.8852 22.8999 14.9668 22.3749 14.9668H19.3415L15.9699 17.2185C15.4682 17.5452 14.7915 17.1835 14.7915 16.5885V14.9668C13.6599 14.9668 12.7032 14.5935 12.0382 13.9285C11.3732 13.2635 10.9999 12.3068 10.9999 11.1752V6.62516C10.9999 6.10016 11.0815 5.61016 11.2332 5.16683C11.7465 3.72016 13.0532 2.8335 14.7915 2.8335H22.3749C24.6499 2.8335 26.1665 4.35016 26.1665 6.62516ZM17.5309 25.2895H14.2059V21.9645C14.2059 21.4862 13.8092 21.0895 13.3309 21.0895C12.8525 21.0895 12.4559 21.4862 12.4559 21.9645V25.2895H9.13086C8.65253 25.2895 8.25586 25.6862 8.25586 26.1645C8.25586 26.6428 8.65253 27.0395 9.13086 27.0395H17.5309C18.0092 27.0395 18.4059 26.6428 18.4059 26.1645C18.4059 25.6862 18.0092 25.2895 17.5309 25.2895Z" fill="#1C315E"/>
<path d="M18.5146 9.83312C18.3999 9.83327 18.2862 9.81082 18.1801 9.76705C18.074 9.72327 17.9776 9.65904 17.8964 9.578C17.8151 9.49697 17.7506 9.40072 17.7066 9.29476C17.6625 9.1888 17.6398 9.0752 17.6396 8.96045C17.6395 8.8457 17.6619 8.73204 17.7057 8.62596C17.7495 8.51988 17.8137 8.42347 17.8947 8.34221C17.9758 8.26096 18.072 8.19647 18.178 8.15241C18.2839 8.10836 18.3975 8.0856 18.5123 8.08545C18.744 8.08514 18.9664 8.17691 19.1305 8.34056C19.2946 8.50422 19.387 8.72636 19.3873 8.95812C19.3876 9.18987 19.2958 9.41226 19.1322 9.57635C18.9685 9.74045 18.7464 9.83281 18.5146 9.83312ZM21.7918 9.83312C21.677 9.83327 21.5634 9.81082 21.4573 9.76705C21.3512 9.72327 21.2548 9.65904 21.1735 9.578C21.0923 9.49697 21.0278 9.40072 20.9837 9.29476C20.9397 9.1888 20.9169 9.0752 20.9168 8.96045C20.9166 8.8457 20.9391 8.73204 20.9828 8.62596C21.0266 8.51988 21.0909 8.42347 21.1719 8.34221C21.2529 8.26096 21.3492 8.19647 21.4551 8.15241C21.5611 8.10836 21.6747 8.0856 21.7894 8.08545C22.0212 8.08514 22.2436 8.17691 22.4077 8.34056C22.5718 8.50422 22.6641 8.72636 22.6644 8.95812C22.6648 9.18987 22.573 9.41226 22.4093 9.57635C22.2457 9.74045 22.0235 9.83281 21.7918 9.83312ZM15.2246 9.83312C15.1099 9.83327 14.9962 9.81082 14.8901 9.76705C14.784 9.72327 14.6876 9.65904 14.6064 9.578C14.5251 9.49697 14.4606 9.40072 14.4166 9.29476C14.3725 9.1888 14.3498 9.0752 14.3496 8.96045C14.3495 8.8457 14.3719 8.73204 14.4157 8.62596C14.4595 8.51988 14.5237 8.42347 14.6047 8.34221C14.6858 8.26096 14.782 8.19647 14.888 8.15241C14.9939 8.10836 15.1075 8.0856 15.2223 8.08545C15.454 8.08514 15.6764 8.17691 15.8405 8.34056C16.0046 8.50422 16.097 8.72636 16.0973 8.95812C16.0976 9.18987 16.0058 9.41226 15.8422 9.57635C15.6785 9.74045 15.4564 9.83281 15.2246 9.83312Z" fill="#006C67"/>
<defs>
<linearGradient id="paint0_linear_4365_803" x1="12.634" y1="15.9603" x2="10.5988" y2="4.66647" gradientUnits="userSpaceOnUse">
<stop stop-color="#227C70"/>
<stop offset="1" stop-color="#006C67"/>
</linearGradient>
</defs>
</svg>
