<svg width="29" height="29" viewBox="0 0 29 29" fill="none" xmlns="http://www.w3.org/2000/svg">
<path d="M24.8013 9.84518L17.1596 3.73185C15.6663 2.54185 13.333 2.53018 11.8513 3.72018L4.20963 9.84518C3.11296 10.7202 2.44796 12.4702 2.6813 13.8468L4.1513 22.6435C4.48963 24.6152 6.3213 26.1669 8.3163 26.1669H20.683C22.6546 26.1669 24.5213 24.5802 24.8596 22.6318L26.3296 13.8352C26.5396 12.4702 25.8746 10.7202 24.8013 9.84518Z" fill="url(#paint0_linear_4365_884)"/>
<path d="M14.5 22.375C14.0217 22.375 13.625 21.9783 13.625 21.5V18C13.625 17.5217 14.0217 17.125 14.5 17.125C14.9783 17.125 15.375 17.5217 15.375 18V21.5C15.375 21.9783 14.9783 22.375 14.5 22.375Z" fill="#1C315E"/>
<defs>
<linearGradient id="paint0_linear_4365_884" x1="13.7104" y1="17.8249" x2="10.2916" y2="2.38675" gradientUnits="userSpaceOnUse">
<stop stop-color="#227C70"/>
<stop offset="1" stop-color="#006C67"/>
</linearGradient>
</defs>
</svg>
