<svg width="29" height="29" viewBox="0 0 29 29" fill="none" xmlns="http://www.w3.org/2000/svg">
<path d="M26.1673 9.61171V19.3884C26.1673 22.6667 24.6623 24.9184 22.014 25.77C21.244 26.0384 20.3573 26.1667 19.389 26.1667H9.61232C8.64398 26.1667 7.75732 26.0384 6.98732 25.77C4.33898 24.9184 2.83398 22.6667 2.83398 19.3884V9.61171C2.83398 5.36504 5.36565 2.83337 9.61232 2.83337H19.389C23.6357 2.83337 26.1673 5.36504 26.1673 9.61171Z" fill="url(#paint0_linear_4365_734)"/>
<path d="M22.013 25.7689C21.243 26.0372 20.3563 26.1655 19.388 26.1655H9.61133C8.64299 26.1655 7.75633 26.0372 6.98633 25.7689C7.39466 22.6889 10.6147 20.2972 14.4997 20.2972C18.3847 20.2972 21.6047 22.6889 22.013 25.7689ZM18.6798 14.01C18.6798 16.32 16.8132 18.1984 14.5032 18.1984C12.1932 18.1984 10.3265 16.32 10.3265 14.01C10.3265 11.7 12.1932 9.83337 14.5032 9.83337C16.8132 9.83337 18.6798 11.7 18.6798 14.01Z" fill="#1C315E"/>
<defs>
<linearGradient id="paint0_linear_4365_734" x1="13.7229" y1="17.8247" x2="10.251" y2="2.41156" gradientUnits="userSpaceOnUse">
<stop stop-color="#227C70"/>
<stop offset="1" stop-color="#006C67"/>
</linearGradient>
</defs>
</svg>
