<svg width="24" height="24" viewBox="0 0 24 24" fill="none" xmlns="http://www.w3.org/2000/svg">
<path d="M16.19 2H7.81C4.17 2 2 4.17 2 7.81V16.18C2 19.83 4.17 22 7.81 22H16.18C19.82 22 21.99 19.83 21.99 16.19V7.81C22 4.17 19.83 2 16.19 2Z" fill="#006C67"/>
<path d="M6.87996 18.8981C6.46996 18.8981 6.12996 18.5581 6.12996 18.1481V16.078C6.12996 15.668 6.46996 15.3281 6.87996 15.3281C7.28996 15.3281 7.62996 15.668 7.62996 16.078V18.1481C7.62996 18.5681 7.28996 18.8981 6.87996 18.8981ZM12 18.9001C11.59 18.9001 11.25 18.5601 11.25 18.1501V14.0001C11.25 13.5901 11.59 13.2501 12 13.2501C12.41 13.2501 12.75 13.5901 12.75 14.0001V18.1501C12.75 18.5701 12.41 18.9001 12 18.9001ZM17.12 18.9001C16.71 18.9001 16.37 18.5601 16.37 18.1501V11.9301C16.37 11.5201 16.71 11.1801 17.12 11.1801C17.53 11.1801 17.87 11.5201 17.87 11.9301V18.1501C17.87 18.5701 17.54 18.9001 17.12 18.9001ZM17.871 5.82205C17.871 5.77205 17.851 5.71205 17.841 5.66205L17.811 5.53205C17.791 5.49205 17.761 5.46205 17.741 5.42205C17.711 5.38205 17.681 5.33205 17.641 5.30205C17.631 5.29205 17.631 5.28205 17.621 5.28205C17.591 5.26205 17.561 5.25205 17.531 5.23205C17.4879 5.19957 17.4408 5.17269 17.391 5.15205C17.341 5.13205 17.291 5.13205 17.241 5.12205C17.201 5.11205 17.171 5.10205 17.131 5.10205H14.201C13.791 5.10205 13.451 5.44205 13.451 5.85205C13.451 6.26205 13.791 6.60205 14.201 6.60205H15.451C13.071 9.10205 10.071 10.8621 6.70096 11.7121C6.30096 11.8121 6.05096 12.2221 6.15096 12.6221C6.23096 12.9621 6.54096 13.1921 6.88096 13.1921C6.94096 13.1921 7.00096 13.1821 7.06096 13.1721C10.631 12.2821 13.821 10.4321 16.371 7.81205V8.78205C16.371 9.19205 16.711 9.53205 17.121 9.53205C17.531 9.53205 17.871 9.19205 17.871 8.78205V5.82205Z" fill="#1C315E"/>
</svg>
