<svg width="24" height="24" viewBox="0 0 24 24" fill="none" xmlns="http://www.w3.org/2000/svg">
<path d="M21.9898 6.01996C22.0098 6.25996 21.9898 6.50996 21.9298 6.75996L18.5598 20.29C18.443 20.7793 18.1639 21.2147 17.7681 21.5252C17.3722 21.8358 16.8829 22.0031 16.3798 22H3.23975C1.72975 22 0.659754 20.52 1.09975 19.07L5.30975 5.53996C5.59975 4.59996 6.46975 3.95996 7.44975 3.95996H19.7498C20.7098 3.95996 21.4898 4.52996 21.8198 5.32996C21.9172 5.54797 21.9747 5.78166 21.9898 6.01996Z" fill="#006C67"/>
<path d="M22.9892 19.6202C23.0127 19.9244 22.9729 20.2302 22.8724 20.5183C22.7719 20.8063 22.6128 21.0705 22.4052 21.294C22.1976 21.5176 21.946 21.6958 21.6661 21.8173C21.3863 21.9389 21.0843 22.0011 20.7792 22.0002H16.3792C17.4192 22.0002 18.3192 21.3002 18.5592 20.2902L21.9292 6.76023C21.9892 6.51023 22.0092 6.26023 21.9892 6.02023L21.9992 6.00023L22.9892 19.6202ZM9.67922 7.13123C9.61922 7.13123 9.55922 7.12123 9.49922 7.11123C9.40323 7.08781 9.31281 7.04566 9.23316 6.98719C9.15351 6.92873 9.0862 6.8551 9.03509 6.77054C8.98398 6.68598 8.95008 6.59215 8.93535 6.49445C8.92061 6.39675 8.92533 6.2971 8.94922 6.20123L9.98922 1.88123C10.0892 1.48123 10.4892 1.24123 10.8992 1.33123C11.2992 1.43123 11.5492 1.83123 11.4492 2.24123L10.4092 6.56123C10.3292 6.90123 10.0192 7.13123 9.67922 7.13123ZM16.3792 7.14223C16.3292 7.14223 16.2692 7.14223 16.2192 7.12223C16.0261 7.07787 15.8577 6.96032 15.7495 6.79431C15.6414 6.62831 15.6018 6.42681 15.6392 6.23223L16.5792 1.89223C16.6692 1.48223 17.0692 1.23223 17.4692 1.31223C17.8692 1.40223 18.1292 1.80223 18.0492 2.20223L17.1092 6.54223C17.0392 6.90223 16.7292 7.14223 16.3792 7.14223ZM15.6992 12.7502H7.69922C7.28922 12.7502 6.94922 12.4102 6.94922 12.0002C6.94922 11.5902 7.28922 11.2502 7.69922 11.2502H15.6992C16.1092 11.2502 16.4492 11.5902 16.4492 12.0002C16.4492 12.4102 16.1092 12.7502 15.6992 12.7502ZM14.6992 16.7502H6.69922C6.28922 16.7502 5.94922 16.4102 5.94922 16.0002C5.94922 15.5902 6.28922 15.2502 6.69922 15.2502H14.6992C15.1092 15.2502 15.4492 15.5902 15.4492 16.0002C15.4492 16.4102 15.1092 16.7502 14.6992 16.7502Z" fill="#1C315E"/>
</svg>
