<svg width="24" height="25" viewBox="0 0 24 25" fill="none" xmlns="http://www.w3.org/2000/svg">
<path d="M17 21.5H7C3 21.5 2 20.5 2 16.5V8.5C2 4.5 3 3.5 7 3.5H17C21 3.5 22 4.5 22 8.5V16.5C22 20.5 21 21.5 17 21.5Z" stroke="#F2F2F2" stroke-width="1.5" stroke-linecap="round" stroke-linejoin="round"/>
<g opacity="0.4">
<path d="M14 8.50012H19M15 12.5001H19M17 16.5001H19M12 16.8321C11.9327 16.1302 11.6219 15.4739 11.1214 14.9771C10.621 14.4803 9.96243 14.1743 9.26 14.1121C8.75457 14.0621 8.24543 14.0621 7.74 14.1121C7.03826 14.1762 6.38078 14.4828 5.88069 14.9792C5.3806 15.4757 5.06918 16.1309 5 16.8321M8.501 11.7921C8.98104 11.7921 9.44142 11.6014 9.78086 11.262C10.1203 10.9225 10.311 10.4622 10.311 9.98212C10.311 9.50208 10.1203 9.0417 9.78086 8.70226C9.44142 8.36282 8.98104 8.17212 8.501 8.17212C8.02096 8.17212 7.56058 8.36282 7.22114 8.70226C6.8817 9.0417 6.691 9.50208 6.691 9.98212C6.691 10.4622 6.8817 10.9225 7.22114 11.262C7.56058 11.6014 8.02096 11.7921 8.501 11.7921Z" stroke="#F2F2F2" stroke-width="1.5" stroke-linecap="round" stroke-linejoin="round"/>
</g>
</svg>
