<svg width="24" height="25" viewBox="0 0 24 25" fill="none" xmlns="http://www.w3.org/2000/svg">
<path d="M12.0002 8.25V13.5M21.0802 9.08V15.92C21.0802 17.04 20.4802 18.08 19.5102 18.65L13.5702 22.08C12.6002 22.64 11.4002 22.64 10.4202 22.08L4.48016 18.65C4.00193 18.3727 3.60509 17.9745 3.32951 17.4953C3.05392 17.0161 2.9093 16.4728 2.91016 15.92V9.08C2.91016 7.96 3.51016 6.92 4.48016 6.35L10.4202 2.92C11.3902 2.36 12.5902 2.36 13.5702 2.92L19.5102 6.35C20.4802 6.92 21.0802 7.95 21.0802 9.08Z" stroke="#FFA17A" stroke-width="1.5" stroke-linecap="round" stroke-linejoin="round"/>
<path d="M12 16.7V16.7999" stroke="#FFA17A" stroke-width="2" stroke-linecap="round" stroke-linejoin="round"/>
</svg>
